<svg width="60" height="60" viewBox="0 0 60 60" fill="none" xmlns="http://www.w3.org/2000/svg">
<path d="M30.2187 6.06273L35.1603 0L34.9927 18.3217L30.0511 24.3844L30.2187 6.06273Z" fill="#0442FF"/>
<path d="M13.2288 12.919L12.4369 5.13745L25.2742 18.2106L26.0662 25.9922L13.2288 12.919Z" fill="#0442FF"/>
<path d="M6.06273 29.7811L0 24.8396L18.3217 25.0072L24.3844 29.9487L6.06273 29.7811Z" fill="#0442FF"/>
<path d="M12.9188 46.7712L5.13721 47.5631L18.2103 34.7258L25.9919 33.9338L12.9188 46.7712Z" fill="#0442FF"/>
<path d="M29.7813 53.9372L24.8397 59.9999L25.0073 41.6782L29.9488 35.6155L29.7813 53.9372Z" fill="#0442FF"/>
<path d="M46.7712 47.0795L47.5631 54.8611L34.7258 41.7879L33.9338 34.0063L46.7712 47.0795Z" fill="#0442FF"/>
<path d="M53.9373 30.2189L60 35.1604L41.6783 34.9928L35.6156 30.0513L53.9373 30.2189Z" fill="#0442FF"/>
<path d="M47.0795 13.229L54.8611 12.437L41.788 25.2743L34.0064 26.0663L47.0795 13.229Z" fill="#0442FF"/>
</svg>
