<svg width="1008" height="298" viewBox="0 0 1008 298" fill="none" xmlns="http://www.w3.org/2000/svg">
<path d="M149.775 30.049L174.267 0L173.436 90.8085L148.944 120.858L149.775 30.049Z" fill="#F6F6F6"/>
<path d="M65.5668 64.0312L61.6416 25.4629L125.268 90.2579L129.193 128.826L65.5668 64.0312Z" fill="#F6F6F6"/>
<path d="M30.049 147.606L0 123.114L90.8086 123.945L120.858 148.437L30.049 147.606Z" fill="#F6F6F6"/>
<path d="M64.0301 231.814L25.4618 235.739L90.2568 172.113L128.825 168.188L64.0301 231.814Z" fill="#F6F6F6"/>
<path d="M147.606 267.332L123.114 297.381L123.945 206.572L148.437 176.523L147.606 267.332Z" fill="#F6F6F6"/>
<path d="M231.814 233.343L235.739 271.911L172.113 207.116L168.188 168.548L231.814 233.343Z" fill="#F6F6F6"/>
<path d="M267.332 149.774L297.381 174.266L206.572 173.435L176.523 148.943L267.332 149.774Z" fill="#F6F6F6"/>
<path d="M233.343 65.5668L271.911 61.6416L207.116 125.268L168.548 129.193L233.343 65.5668Z" fill="#F6F6F6"/>
<path d="M564.287 196.715L535.343 119.974L500.83 192.006C498.351 197.138 494.794 198 490.921 198C487.047 198 483.49 197.146 481.011 192.006L446.499 119.974L417.405 196.715H401L435.053 107.279C436.756 102.57 440.313 100.008 444.645 100.008C448.978 100.008 452.384 102.293 454.238 105.717L491.229 180.751L528.221 105.717C529.766 102.293 533.172 100.008 537.663 100.008C542.155 100.008 545.561 102.578 547.414 107.279L581 196.715H564.287Z" fill="#F6F6F6"/>
<path d="M618.998 196.716L628.793 183.736H710.074L662.405 117.551L604.367 196.716H584.556L651.727 105.848C653.898 102.855 657.613 100 662.714 100C667.814 100 671.379 102.57 673.7 105.848L739.945 196.716H618.989H618.998Z" fill="#F6F6F6"/>
<path d="M887.912 196.716V101.285H997.802L986.816 114.412H904.634V143.08H993.011L983.419 154.49H904.634V183.736H998.579L987.593 196.716H887.921H887.912Z" fill="#F6F6F6"/>
<path d="M854.326 147.65C861.757 145.796 870.422 138.664 870.422 127.107C870.422 110.272 856.956 101.285 834.975 101.285H683.372L692.99 114.412H835.592C847.196 114.412 854.476 119.405 854.476 129.246C854.476 137.517 847.973 143.08 837.604 143.08H714.019L723.302 155.734H836.757C848.361 155.734 855.641 160.728 855.641 170.569C855.641 178.84 849.138 184.403 838.769 184.403H744.322L753.349 196.708H834.825C862.842 196.708 872.434 185.013 872.434 170.317C872.434 157.337 863.301 149.773 854.326 147.634V147.65Z" fill="#F6F6F6"/>
</svg>
